<svg xmlns="http://www.w3.org/2000/svg" version="1.1" xmlns:xlink="http://www.w3.org/1999/xlink" xmlns:svgjs="http://svgjs.dev/svgjs" viewBox="0 0 800 800"><defs><linearGradient x1="50%" y1="0%" x2="50%" y2="100%" id="ccchaos-grad"><stop stop-color="hsl(37, 99%, 67%)" stop-opacity="1" offset="0%"></stop><stop stop-color="hsl(316, 73%, 52%)" stop-opacity="1" offset="100%"></stop></linearGradient></defs><g stroke-width="2" stroke="url(#ccchaos-grad)" fill="none" stroke-linecap="round"><path d="M408.15 109.46C418.22 114.8 428.56 120.47 439.17 125.76 449.79 129.68 460.69 132.31 471.81 133.55 482.94 133.02 494.25 131.58 505.67 129.69 517.01 127.41 528.33 125.83 539.48 125.45 550.35 126.19 560.84 128.78 570.72 133.27 580.02 139.25 588.42 146.86 595.69 155.73 602.06 165.31 607.06 175.42 610.53 185.66 613.01 195.54 613.98 204.98 613.51 213.8 612.45 221.68 610.41 228.85 607.73 235.37 604.51 243.6 603.97 258.01 609.34 265.17 616.14 269.88 625.21 275.07 636.38 280.79 649.46 286.59 663.71 292.98 678.35 299.96 692.7 307.05 705.66 314.68 716.26 322.79 724.04 330.97 728.06 339.57 727.89 348.51 724.05 357.47 716.31 366.73 705.27 376.25 692.52 385.77 678.84 395.33 665.48 404.95 653.75 414.61 644.2 424.4 637.42 434.36 634.04 444.48 633.67 454.89 635.96 465.67 640.91 476.72 647.32 488.26 654.35 500.29 661.87 512.62 668.47 525.43 673.49 538.59 677.08 551.8 678.21 565.07 676.76 578.08 673.16 590.47 667.05 602 658.72 612.21 648.72 620.94 637.14 627.73 624.47 632.25 611.08 634.87 597.29 635.18 583.47 633.35 569.76 630.48 556.43 626.51 543.67 622.21 531.43 619.08 519.85 617.32 508.92 617.78 498.56 621.47 488.74 628.25 479.36 638.09 470.4 650.73 461.69 665.08 453.13 679.93 444.8 694.05 436.45 705.82 428.01 713.86 419.66 717.65 411.11 716.37 402.34 710.14 393.58 700.43 384.55 688.01 375.26 674.64 365.98 662.9 356.67 654.03 347.39 649.12 338.14 648.99 328.97 652.96 319.95 660.1 311.01 669.74 302.29 679.75 293.87 688.56 285.6 695.49 277.69 698.88 270.21 698.2 262.92 693.8 256.1 685.51 249.8 674.09 243.66 660.57 238.02 645.76 232.87 630.73 227.77 616.36 223.05 603.3 218.68 592.03 214.12 582.93 209.74 575.87 205.44 570.64 198.32 566.23 182.53 562.43 173.67 560.52 167.16 558.92 160.55 556.31 153.93 552.59 147.11 548.32 140.54 542.88 134.42 536.39 128.54 529.37 123.4 521.46 119.16 512.84 115.53 503.89 112.95 494.44 111.48 484.65 110.65 474.71 110.82 464.59 111.9 454.38 113.26 444.14 115.2 433.89 117.55 423.66 119.6 413.44 121.65 403.48 123.59 393.78 124.86 384.04 125.93 374.49 126.83 365.07 127.13 355.52 127.46 346.01 127.93 336.45 128.23 326.66 129 316.72 130.39 306.57 132.08 296.11 134.65 285.39 138.14 274.42 142.23 263.22 147.3 251.86 153.3 240.47 159.89 229.17 167.28 218.14 175.33 207.61 183.71 197.7 192.53 188.7 201.65 180.88 210.78 174.12 220.01 168.76 229.26 164.9 238.26 162.03 247.18 160.4 255.99 159.79 264.44 159.32 272.8 159.11 281.07 158.73 289.01 157.3 296.95 154.97 304.93 151.5 312.65 146.43 320.51 140.27 328.56 133.31 336.44 125.66 344.6 118.21 353.07 111.61 361.45 106.09 370.2 102.52 379.37 101.25 388.49 101.9 398.08 104.76 408.14 109.45" stroke-dasharray="11 2" transform="rotate(0, 400, 400)" opacity="0.57"></path><path d="M415.95 120.33C425.81 125.61 435.87 131.23 446.1 136.55 456.35 140.61 466.76 143.49 477.28 145.06 487.78 144.92 498.32 143.8 508.81 142.12 519.16 139.86 529.33 138.06 539.15 137.2 548.65 137.2 557.6 138.85 565.81 142.25 573.45 147.07 580.11 153.56 585.63 161.45 590.37 170.24 593.83 179.83 595.94 189.85 597.33 199.83 597.5 209.65 596.57 219.1 595.43 227.84 593.69 235.97 591.72 243.5 590.48 250.18 589.8 256.36 590.11 262.18 592.22 267.37 596 272.46 601.7 277.6 609.66 282.43 619.56 287.53 631.18 293 644.26 298.38 658.11 304.25 671.99 310.62 685.32 317.02 697.12 323.94 706.55 331.36 713.29 338.81 716.52 346.75 715.88 355.13 711.95 363.51 704.46 372.33 693.97 381.56 681.91 390.79 668.97 400.23 656.2 409.89 644.82 419.58 635.3 429.55 628.19 439.81 624.11 450.18 622.77 460.93 623.92 472.05 627.65 483.34 632.92 495.04 639.03 507.1 645.92 519.24 652.3 531.61 657.55 544.02 661.81 556.18 664.05 568.04 664.07 579.25 662.26 589.61 658.11 598.81 651.81 606.47 643.87 612.67 634.24 616.96 623.3 619.18 611.45 619.91 598.88 618.81 585.97 616.18 572.88 613.17 559.89 609.73 547.19 606.59 534.77 605.06 522.83 605.23 511.42 607.73 500.43 613.28 489.95 621.58 479.93 632.45 470.27 645.46 460.94 659.56 451.88 673.59 443.04 686.49 434.32 696.85 425.66 703.53 417.09 706.21 408.49 704.24 399.82 697.82 391.17 688.34 382.4 676.47 373.51 663.77 364.62 652.56 355.83 643.91 347.17 638.8 338.53 638.04 330.06 641.07 321.81 647.16 313.63 655.82 305.72 665.16 298.15 673.83 290.69 681.21 283.6 685.67 276.95 686.62 270.41 684.24 264.31 678.15 258.68 668.87 253.11 657.23 247.97 643.82 243.22 629.57 238.41 615.31 233.88 601.7 229.58 589.3 225 578.53 220.51 569.51 216 562.2 211.03 556.73 205.92 552.6 200.63 549.44 194.78 547.39 188.71 545.61 182.47 543.75 175.77 542.15 169.03 539.96 162.35 536.98 155.56 533.76 149.09 529.59 143.12 524.46 137.47 518.96 132.59 512.56 128.62 505.39 125.29 497.92 122.99 489.82 121.78 481.2 121.19 472.44 121.57 463.3 122.83 453.87 124.34 444.41 126.4 434.73 128.86 424.88 130.99 415.03 133.13 405.26 135.14 395.55 136.47 385.82 137.59 376.12 138.51 366.4 138.82 356.59 139.1 346.7 139.47 336.68 139.61 326.5 140.15 316.13 141.22 305.56 142.52 294.83 144.62 283.92 147.58 272.89 151.08 261.84 155.53 250.82 160.9 239.99 166.86 229.49 173.65 219.48 181.15 210.18 189.05 201.64 197.48 194.14 206.3 187.86 215.25 182.58 224.39 178.61 233.63 175.95 242.75 174.01 251.86 173.02 260.9 172.72 269.68 172.25 278.37 171.75 286.99 170.84 295.32 168.75 303.61 165.7 311.91 161.53 319.97 155.91 328.1 149.37 336.36 142.23 344.45 134.62 352.75 127.39 361.29 121.14 369.73 116.03 378.49 112.84 387.58 111.88 396.64 112.72 406.09 115.66 415.94 120.32" stroke-dasharray="2 5" transform="rotate(4.04, 400, 400)" opacity="0.14"></path><path d="M422 131.2C431.59 136.4 441.29 141.97 451.05 147.29 460.81 151.47 470.61 154.59 480.39 156.48 490.11 156.72 499.74 155.97 509.16 154.56 518.42 152.42 527.34 150.52 535.78 149.3 543.88 148.7 551.33 149.5 557.96 151.87 564.07 155.54 569.21 160.85 573.26 167.62 576.69 175.42 578.99 184.23 580.17 193.72 580.89 203.46 580.7 213.33 579.76 223.07 578.91 232.39 577.82 241.28 576.82 249.68 576.77 257.35 577.48 264.53 579.31 271.28 582.89 277.38 588.08 283.23 595.01 288.97 603.89 294.29 614.38 299.7 626.2 305.31 639.09 310.71 652.38 316.46 665.41 322.6 677.68 328.67 688.32 335.21 696.62 342.22 702.39 349.22 704.88 356.71 703.85 364.69 699.84 372.67 692.62 381.14 682.66 390.12 671.3 399.1 659.06 408.39 646.89 417.98 635.89 427.6 626.46 437.56 619.1 447.84 614.44 458.2 612.23 468.9 612.32 479.91 614.87 490.97 619 502.3 624.11 513.78 630.23 525.15 636.18 536.48 641.4 547.55 646.03 558.16 649.06 568.15 650.24 577.24 649.93 585.36 647.51 592.17 643.1 597.4 637.15 601.34 629.48 603.56 620.38 604.03 610.26 603.5 599.2 601.66 587.53 598.9 575.46 596.34 563.21 593.93 550.99 592.3 538.84 592.54 526.95 594.66 515.43 599.07 504.18 606.22 493.35 615.73 482.94 627.27 472.81 640.33 463.04 653.93 453.59 666.97 444.34 678.59 435.3 687.55 426.44 692.93 417.68 694.6 409 692.04 400.39 685.47 391.8 676.26 383.23 664.94 374.67 652.91 366.11 642.22 357.76 633.81 349.64 628.54 341.53 627.22 333.67 629.37 326.1 634.43 318.56 642.08 311.34 650.68 304.49 659.01 297.69 666.6 291.27 671.87 285.27 674.17 279.31 673.61 273.75 669.6 268.59 662.47 263.4 652.87 258.55 641.18 254 628.17 249.29 614.58 244.78 601.02 240.39 588.09 235.66 576.22 230.93 565.69 226.13 556.62 220.85 549.15 215.4 543.05 209.76 538.07 203.6 534.33 197.27 531.2 190.8 528.36 183.97 526.09 177.16 523.61 170.48 520.71 163.79 517.86 157.49 514.32 151.73 510.02 146.36 505.53 141.77 500.24 138.12 494.18 135.09 487.93 133.1 480.97 132.15 473.41 131.8 465.73 132.38 457.52 133.8 448.88 135.45 440.19 137.62 431.12 140.16 421.71 142.38 412.3 144.59 402.79 146.65 393.19 148.06 383.58 149.24 373.85 150.2 364.01 150.54 354.12 150.81 344.08 151.11 333.87 151.14 323.59 151.48 313.14 152.28 302.56 153.23 291.96 154.9 281.29 157.34 270.67 160.26 260.21 164.09 249.97 168.8 240.13 174.08 230.76 180.21 222.06 187.07 214.22 194.39 207.17 202.3 201.2 210.68 196.41 219.28 192.48 228.17 189.69 237.25 187.97 246.32 186.68 255.46 186.03 264.59 185.76 273.56 185.05 282.49 184.08 291.35 182.52 299.99 179.72 308.59 175.94 317.16 171.13 325.53 165.03 333.93 158.2 342.4 150.98 350.72 143.5 359.18 136.56 367.8 130.69 376.33 126.01 385.1 123.21 394.12 122.54 403.11 123.57 412.39 126.57 421.99 131.19" stroke-dasharray="3 10" transform="rotate(8.08, 400, 400)" opacity="0.71"></path><path d="M425.62 142.07C434.89 147.19 444.14 152.68 453.34 157.98 462.53 162.27 471.63 165.6 480.58 167.8 489.45 168.44 498.09 168.08 506.4 166.99 514.54 165.05 522.21 163.16 529.32 161.72 539.15 160.68 554.2 166.81 559.08 174.45 561.57 181.11 563.12 188.92 563.79 197.6 564.27 206.78 564.12 216.34 563.55 226.04 563.32 235.59 563.13 244.93 563.29 253.94 564.52 262.42 566.64 270.47 569.92 278.11 574.85 285.17 581.25 291.9 589.17 298.42 598.73 304.48 609.56 310.48 621.36 316.53 633.88 322.3 646.48 328.26 658.57 334.5 669.75 340.59 679.26 347.06 686.48 353.93 691.34 360.74 693.17 368 691.78 375.74 687.73 383.46 680.78 391.68 671.36 400.42 660.66 409.16 649.12 418.23 637.56 427.61 626.97 437 617.68 446.72 610.16 456.72 605.01 466.73 602.04 477 601.16 487.44 602.59 497.83 605.58 508.29 609.66 518.69 614.9 528.83 620.24 538.67 625.2 548.01 629.92 556.77 633.43 564.7 635.46 571.57 635.86 579.82 625.62 587.75 615.49 587.47 607.18 586.33 597.79 584.42 587.61 582.13 576.86 580.51 565.69 579.48 554.33 579.57 542.83 581.64 531.39 585.61 520.14 591.72 509.01 600.17 498.17 610.55 487.67 622.41 477.36 635.24 467.38 648.11 457.72 660.04 448.22 670.32 438.99 677.91 430 682.07 421.11 682.83 412.39 679.75 403.83 673.12 395.31 664.19 386.9 653.43 378.62 642.04 370.34 631.87 362.35 623.71 354.68 618.34 347 616.51 339.64 617.85 332.61 621.93 325.59 628.56 318.92 636.32 312.62 644.19 306.32 651.76 300.4 657.56 294.85 660.93 289.28 661.93 284.05 659.83 279.16 654.77 274.15 647.29 269.41 637.52 264.88 626.09 260.12 613.66 255.46 600.71 250.85 587.86 245.87 575.51 240.83 564.03 235.67 553.65 230.04 544.54 224.25 536.66 218.27 529.9 211.85 524.35 205.29 519.62 198.66 515.43 191.76 511.99 184.96 508.68 178.36 505.28 171.84 502.15 165.76 498.63 160.28 494.6 155.22 490.56 150.98 485.87 147.66 480.53 144.97 475.09 143.28 468.98 142.6 462.24 142.49 455.42 143.26 448.01 144.83 440.07 146.6 432.1 148.86 423.64 151.46 414.71 153.75 405.78 156.02 396.63 158.15 387.28 159.64 377.93 160.89 368.39 161.9 358.67 162.29 348.94 162.58 339.04 162.86 328.99 162.81 318.96 163 308.82 163.57 298.64 164.22 288.58 165.49 278.58 167.45 268.78 169.82 259.29 173.03 250.19 177.07 241.63 181.66 233.64 187.08 226.41 193.24 220.1 199.89 214.54 207.17 209.99 214.98 206.53 223.09 203.71 231.57 201.82 240.32 200.74 249.17 199.79 258.15 199.2 267.21 198.7 276.2 197.56 285.2 195.96 294.17 193.67 303 190.14 311.79 185.67 320.54 180.28 329.15 173.81 337.75 166.78 346.38 159.57 354.88 152.31 363.46 145.71 372.13 140.27 380.73 136.03 389.47 133.61 398.38 133.23 407.26 134.44 416.34 137.49 425.61 142.06" stroke-dasharray="9 5" transform="rotate(12.12, 400, 400)" opacity="0.77"></path><path d="M426.42 152.93C435.3 157.96 444.05 163.36 452.63 168.63 461.2 173 469.55 176.52 477.63 179.01 485.64 180.04 493.3 180.08 500.53 179.36 510.86 176.82 528.14 172.74 534.75 173.14 540.07 176.22 546.29 190.86 547.46 201.85 548.07 210.17 548.31 219.1 548.4 228.4 549.03 237.81 549.91 247.23 551.33 256.52 553.85 265.5 557.32 274.19 561.92 282.54 568.01 290.43 575.39 298 584.06 305.31 594.04 312.19 604.98 318.91 616.56 325.57 628.53 331.93 640.34 338.35 651.44 344.91 661.53 351.29 669.93 357.93 676.13 364.86 680.14 371.71 681.37 378.92 679.68 386.54 675.62 394.13 668.96 402.16 660.06 410.64 650.01 419.13 639.15 427.89 628.2 436.9 618.04 445.91 608.94 455.14 601.35 464.55 595.8 473.93 592.18 483.42 590.44 492.92 590.83 502.28 592.72 511.52 595.75 520.48 600.02 529.1 604.63 537.22 609.13 544.67 617.35 566.28 598.18 568.49 585.78 566.46 576.54 566.14 566.71 566.71 556.48 568.6 545.98 572.43 535.34 578.05 524.71 585.55 514.05 594.98 503.54 605.86 493.26 617.73 483.07 630.06 473.14 642.01 463.51 652.73 453.98 661.67 444.72 667.94 435.73 670.96 426.81 670.9 418.12 667.4 409.65 660.75 401.22 652.14 392.97 641.92 384.92 631.17 376.87 621.52 369.19 613.63 361.86 608.19 354.52 605.93 347.54 606.52 340.92 609.66 334.28 615.28 328 622.16 322.07 629.42 316.11 636.78 310.49 642.86 305.21 647.02 299.84 649.29 294.76 648.86 289.93 645.73 284.95 640.32 280.14 632.58 275.47 622.97 270.52 612.06 265.61 600.22 260.69 587.99 255.39 575.77 249.99 563.95 244.46 552.81 238.5 542.56 232.38 533.29 226.11 525 219.48 517.79 212.77 511.43 206.05 505.75 199.18 500.89 192.46 496.39 186.02 492.07 179.74 488.17 173.95 484.16 168.8 479.89 162.17 473.47 154.24 458.24 153.13 449.23 153.25 442.99 154.2 436.18 155.9 428.82 157.77 421.44 160.11 413.53 162.76 405.12 165.11 396.7 167.44 387.99 169.62 379.04 171.18 370.11 172.51 360.96 173.59 351.62 174.06 342.32 174.39 332.87 174.67 323.34 174.59 313.89 174.69 304.42 175.07 295.04 175.47 285.85 176.39 276.87 177.93 268.23 179.79 259.97 182.41 252.21 185.8 245.11 189.69 238.57 194.37 232.83 199.79 227.98 205.7 223.76 212.27 220.45 219.4 218.05 226.89 216.05 234.81 214.74 243.08 213.96 251.52 213.05 260.18 212.25 268.98 211.3 277.81 209.57 286.7 207.26 295.61 204.2 304.45 199.97 313.28 194.88 322.08 189.01 330.79 182.26 339.49 175.16 348.16 168.06 356.76 161.08 365.38 154.88 374.02 149.88 382.62 146.09 391.28 144.07 400 143.96 408.72 145.34 417.52 148.42 426.41 152.93" stroke-dasharray="8 1" transform="rotate(16.16, 400, 400)" opacity="0.17"></path><path d="M424.31 163.8C432.75 168.72 440.95 174.02 448.89 179.23 456.8 183.66 464.41 187.35 471.65 190.11 478.82 191.51 485.57 191.97 491.83 191.64 500.72 189.56 515.18 185.23 520.56 184.77 524.94 186.46 530.34 197.58 531.77 206.79 532.81 214.03 533.72 222.06 534.69 230.63 536.32 239.53 538.36 248.66 541.03 257.86 544.79 266.97 549.48 275.96 555.22 284.73 562.25 293.2 570.38 301.42 579.54 309.38 589.7 316.99 600.52 324.42 611.7 331.7 623.01 338.71 633.93 345.67 644 352.67 653 359.48 660.33 366.42 665.57 373.53 668.8 380.56 669.49 387.84 667.55 395.4 663.51 402.93 657.14 410.79 648.76 418.99 639.34 427.19 629.15 435.55 618.82 444.03 609.11 452.5 600.25 461.07 592.65 469.66 586.81 478.19 582.63 486.65 580.13 494.96 579.56 503.08 580.42 510.9 582.42 518.27 585.69 525.29 589.46 531.68 593.34 537.31 603.84 551.65 591.66 552.62 581.73 552.37 574.11 553.56 565.75 555.81 556.86 559.43 547.59 564.84 538.01 571.85 528.28 580.41 518.41 590.45 508.54 601.5 498.77 613.06 489 624.67 479.4 635.56 470.01 645.01 460.69 652.61 451.59 657.62 442.74 659.61 433.95 658.83 425.39 654.98 417.08 648.37 408.79 640.09 400.72 630.43 392.88 620.3 385.05 611.16 377.6 603.56 370.54 598.1 363.46 595.45 356.75 595.37 350.4 597.63 344.01 602.26 337.97 608.22 332.25 614.78 326.47 621.74 320.99 627.86 315.79 632.54 307.91 636.27 292.84 629.02 285.42 618.49 280.2 609.36 274.97 599 269.68 587.86 264.04 576.33 258.28 564.76 252.39 553.47 246.14 542.65 239.75 532.49 233.27 523.11 226.51 514.55 219.74 506.77 213.03 499.7 206.26 493.39 199.72 487.58 193.52 482.12 187.54 477.16 182.1 472.31 177.33 467.42 171.3 460.35 164.45 444.9 163.76 436.2 164.1 430.25 165.21 423.82 167.02 416.89 168.98 409.95 171.38 402.53 174.06 394.62 176.46 386.71 178.83 378.52 181.05 370.12 182.69 361.73 184.1 353.15 185.27 344.44 185.83 335.8 186.23 327.07 186.55 318.34 186.47 309.75 186.52 301.25 186.78 292.94 186.98 284.88 187.62 277.14 188.78 269.84 190.18 262.93 192.26 256.6 195.04 250.95 198.24 245.8 202.2 241.41 206.86 237.84 211.99 234.71 217.78 232.34 224.16 230.67 230.92 229.16 238.17 228.09 245.81 227.3 253.69 226.17 261.85 224.92 270.22 223.36 278.7 220.93 287.3 217.86 295.96 214.05 304.63 209.17 313.32 203.55 322 197.32 330.65 190.41 339.28 183.35 347.87 176.45 356.43 169.83 364.97 164.07 373.48 159.55 381.97 156.22 390.46 154.58 398.93 154.74 407.4 156.26 415.86 159.36 424.3 163.8" stroke-dasharray="5 2" transform="rotate(20.200000000000003, 400, 400)" opacity="0.43"></path><path d="M419.53 174.67C427.48 179.47 435.12 184.65 442.42 189.79 449.69 194.25 456.59 198.07 463.07 201.08 472.47 203.27 488.62 202.25 495.22 200.25 505.31 197.79 515.17 205.36 517.29 212.7 518.99 218.73 520.74 225.64 522.72 233.24 525.4 241.3 528.59 249.78 532.45 258.52 537.32 267.38 543.05 276.27 549.71 285.11 557.44 293.81 566.06 302.36 575.46 310.72 585.56 318.85 596.08 326.8 606.69 334.58 617.21 342.15 627.19 349.61 636.22 357.01 644.15 364.26 650.46 371.52 654.81 378.84 657.32 386.08 657.54 393.44 655.39 400.95 651.41 408.44 645.34 416.11 637.46 423.98 628.65 431.85 619.12 439.73 609.39 447.58 600.16 455.41 591.59 463.18 584.05 470.82 578.01 478.38 573.39 485.71 570.23 492.74 568.76 502.77 573.41 519.77 577.99 526.28 586.18 537.17 565.9 544.94 555.01 552.05 547.11 558.77 538.78 566.83 530.14 576.08 521.3 586.38 512.31 597.27 503.29 608.27 494.2 618.96 485.17 628.68 476.26 636.82 467.36 643.13 458.62 646.96 450.08 648.02 441.56 646.62 433.25 642.51 425.17 635.98 417.1 628.07 409.25 618.96 401.63 609.43 394 600.8 386.77 593.49 379.91 588.05 373.02 585.09 366.49 584.4 360.29 585.85 354.05 589.52 348.11 594.55 342.47 600.33 336.73 606.75 331.25 612.7 325.99 617.63 317.96 622.6 302.26 620.06 294.38 612.42 288.85 605.2 283.27 596.56 277.63 586.88 271.66 576.51 265.59 565.72 259.41 554.83 252.93 544.05 246.37 533.59 239.77 523.62 232.98 514.2 226.25 505.4 219.65 497.21 213.08 489.66 206.79 482.63 200.91 476.04 195.31 469.95 190.27 464.11 185.92 458.41 182.05 453.01 178.99 447.57 176.79 442.02 175.15 436.6 174.39 430.94 174.48 424.99 175.02 419.08 176.28 412.81 178.19 406.17 180.23 399.53 182.66 392.49 185.37 385.07 187.79 377.64 190.19 370.02 192.46 362.24 194.17 354.5 195.66 346.63 196.92 338.73 197.58 330.89 198.08 323.07 198.46 315.36 198.43 307.79 198.47 300.42 198.65 293.34 198.92 283.29 201.79 266.06 204.8 259.23 209 253.64 221.39 246.16 229.47 243.98 235.43 242.62 241.9 241.48 248.81 240.4 255.99 238.81 263.51 236.96 271.29 234.67 279.24 231.5 287.36 227.69 295.6 223.18 303.91 217.75 312.28 211.72 320.67 205.25 329.07 198.32 337.47 191.4 345.83 184.8 354.19 178.6 362.52 173.32 370.78 169.29 379.04 166.42 387.24 165.14 395.37 165.55 403.51 167.2 411.56 170.32 419.52 174.67" stroke-dasharray="6 7" transform="rotate(24.24, 400, 400)" opacity="0.59"></path><path d="M412.59 185.54C420.02 190.21 427.1 195.25 433.8 200.3 440.47 204.76 446.74 208.7 452.58 211.91 461.02 214.64 475.4 214.86 481.27 213.28 490.68 210.27 501.36 214.3 504.47 219.82 506.96 224.58 509.65 230.25 512.66 236.69 516.37 243.68 520.62 251.23 525.53 259.18 531.33 267.4 537.88 275.83 545.22 284.35 553.4 292.9 562.26 301.42 571.65 309.84 581.51 318.16 591.53 326.35 601.45 334.38 611.11 342.29 620.1 350.07 628.09 357.73 634.99 365.29 640.33 372.78 643.85 380.23 645.72 387.62 645.53 395.01 643.22 402.42 639.31 409.82 633.54 417.26 626.15 424.74 617.95 432.23 609.06 439.57 599.94 446.74 591.19 453.88 582.95 460.82 575.54 467.48 569.38 474.06 564.42 480.3 560.72 486.12 558.98 500.98 567.58 516.16 571.58 518.58 574.17 523.71 559.39 537.2 550.64 546.31 544.16 554.02 537.14 562.76 529.72 572.34 522.05 582.56 514.11 592.99 506.02 603.2 497.81 612.83 489.54 621.32 481.29 628.17 473.01 633.23 464.8 635.98 456.71 636.21 448.63 634.28 440.69 629.98 432.92 623.6 425.17 616.06 417.58 607.49 410.19 598.56 402.8 590.43 395.76 583.44 389.05 578.04 382.32 574.83 375.91 573.61 369.78 574.31 363.61 577.08 357.69 581.17 352.01 586.12 346.24 591.88 340.66 597.48 335.24 602.42 326.95 608.19 310.47 609.56 302.11 604.62 296.27 599.32 290.38 592.52 284.42 584.52 278.19 575.65 271.88 566.08 265.5 556.09 258.9 545.9 252.26 535.71 245.65 525.72 238.95 515.98 232.36 506.65 225.98 497.79 219.7 489.36 213.76 481.41 208.27 473.89 203.09 466.8 198.51 460.03 194.61 453.51 191.19 447.28 188.55 441.17 186.74 435.1 185.45 429.19 184.98 423.21 185.31 417.1 186.03 411.04 187.43 404.79 189.41 398.32 191.5 391.85 193.95 385.13 196.67 378.15 199.11 371.17 201.53 364.11 203.83 357.01 205.61 349.93 207.19 342.85 208.54 335.83 209.32 328.88 209.92 322.05 210.4 315.42 210.48 305.82 210.79 288.63 211.53 281.34 215.63 270.22 228.64 259.55 235.51 257.51 240.64 256 246.28 254.52 252.38 252.91 258.77 250.71 265.53 248.14 272.6 245.09 279.87 241.18 287.36 236.69 295.01 231.59 302.79 225.73 310.66 219.43 318.59 212.86 326.57 206.02 334.58 199.35 342.55 193.13 350.56 187.4 358.52 182.64 366.4 179.11 374.31 176.69 382.13 175.76 389.84 176.4 397.55 178.17 405.15 181.29 412.58 185.54" stroke-dasharray="4 2" transform="rotate(28.28, 400, 400)" opacity="0.45"></path><path d="M404.27 196.41C411.17 200.93 417.71 205.82 423.87 210.76 430.01 215.21 435.75 219.21 441.06 222.61 448.78 225.82 461.98 227.32 467.5 226.27 476.97 223.15 489.39 224.42 493.66 228.28 496.99 231.81 500.6 236.23 504.59 241.42 509.23 247.19 514.39 253.6 520.16 260.52 526.66 267.8 533.81 275.43 541.56 283.29 549.94 291.3 558.79 299.41 567.97 307.53 577.38 315.67 586.77 323.75 595.89 331.74 604.63 339.68 612.62 347.5 619.58 355.2 625.49 362.84 629.93 370.38 632.7 377.8 634 385.2 633.45 392.51 631.02 399.73 627.21 406.95 621.75 414.09 614.85 421.14 607.23 428.19 598.96 434.98 590.44 441.47 582.2 447.94 574.32 454.09 567.09 459.87 560.9 465.58 555.7 470.87 551.57 475.69 549.95 493.94 558.87 504.37 561.03 506.11 562.12 508.56 559.54 516.35 555.77 522.61 552.49 528.13 548.44 534.59 543.7 541.98 538.56 550.32 532.85 559.37 526.66 568.92 520.21 578.75 513.4 588.49 506.34 597.72 499.13 606.2 491.76 613.43 484.3 619.01 476.78 622.91 469.24 624.68 461.72 624.18 454.2 621.84 446.73 617.42 439.37 611.21 432.01 604.06 424.76 596.03 417.63 587.69 410.51 580.06 403.67 573.38 397.1 568.08 390.52 564.67 384.19 562.99 378.09 563.02 371.94 564.94 366 568.13 360.23 572.22 354.37 577.24 348.65 582.34 343.04 587.07 337.29 591.53 331.6 594.91 325.95 596.97 320.12 597.94 314.28 597.3 308.41 595.07 302.33 591.57 296.19 586.6 290 580.38 283.61 573.21 277.17 565.15 270.7 556.45 264.1 547.31 257.52 537.9 251.02 528.41 244.52 518.93 238.19 509.61 232.12 500.56 226.22 491.76 220.7 483.3 215.66 475.2 210.96 467.41 206.86 459.94 203.44 452.77 200.48 445.85 198.27 439.13 196.84 432.56 195.89 426.15 195.69 419.8 196.24 413.47 197.13 407.2 198.64 400.89 200.68 394.51 202.81 388.14 205.27 381.66 207.97 375.08 210.42 368.51 212.85 361.98 215.17 355.53 217.01 349.11 218.66 342.79 220.1 336.64 221.37 327.61 222.55 311.01 222.8 303.66 223.56 291.56 228.52 278.51 232.12 275.73 236.72 273.08 249.12 267.8 256.77 264.51 262.32 261.61 268.25 258.29 274.52 254.49 281 249.93 287.75 244.85 294.69 239.29 301.79 233.15 309.02 226.73 316.34 220.2 323.75 213.58 331.21 207.26 338.66 201.48 346.17 196.28 353.64 192.05 361.04 189.02 368.47 187.04 375.82 186.45 383.03 187.3 390.27 189.17 397.35 192.27 404.26 196.4" stroke-dasharray="8 4" transform="rotate(32.32, 400, 400)" opacity="0.81"></path><path d="M395.48 207.28C401.86 211.64 407.9 216.37 413.59 221.18 421.92 227.6 436.72 236.81 443.18 239.16 454.67 238.61 469.7 235.03 474.42 234.8 479.6 235.71 491.41 242.17 498.47 247.74 503.87 252.24 509.76 257.42 516.14 263.16 523.12 269.3 530.6 275.89 538.51 282.8 546.86 289.97 555.49 297.33 564.24 304.82 573.07 312.42 581.71 320.05 589.96 327.66 597.74 335.29 604.73 342.86 610.69 350.32 615.67 357.79 619.28 365.13 621.37 372.34 622.16 379.54 621.31 386.61 618.81 393.53 615.12 400.45 609.97 407.22 603.55 413.81 596.5 420.39 588.84 426.64 580.91 432.52 573.18 438.38 565.69 443.85 558.7 448.91 549.89 456.22 538.24 468.46 535.49 473.35 539.7 485.65 546.31 497.38 546.47 502.3 546.06 506.52 544.92 511.42 543.05 517.05 540.82 523.57 537.88 530.83 534.28 538.79 530.35 547.38 525.84 556.38 520.82 565.57 515.55 574.75 509.87 583.59 503.86 591.72 497.69 598.99 491.27 604.97 484.68 609.34 478.01 612.17 471.22 613.07 464.37 611.97 457.49 609.28 450.59 604.82 443.7 598.83 436.81 592.09 429.95 584.59 423.13 576.82 416.32 569.68 409.71 563.34 403.3 558.15 396.88 554.6 390.63 552.54 384.56 551.97 378.44 553.11 372.46 555.43 366.6 558.67 360.67 562.89 354.81 567.36 349.02 571.71 343.11 576.06 337.23 579.66 331.36 582.28 325.34 584.12 319.3 584.65 313.22 583.81 307 581.91 300.73 578.65 294.43 574.18 288 568.77 281.55 562.38 275.14 555.2 268.66 547.45 262.26 539.21 256 530.68 249.8 521.95 243.84 513.15 238.18 504.42 232.73 495.75 227.7 487.26 223.16 479.03 218.98 470.95 215.39 463.15 212.45 455.62 209.96 448.26 208.17 441.14 207.11 434.23 206.48 427.45 206.54 420.81 207.28 414.31 208.32 407.86 209.92 401.5 212 395.19 214.14 388.9 216.6 382.64 219.27 376.41 221.71 370.19 224.14 364.14 226.47 358.28 229.22 349.63 233.07 333.57 234.21 326.31 234.85 313.68 236.09 298.88 237.38 295.35 242.47 289.12 255.81 279.3 262.23 274.95 266.92 271.33 272 267.3 277.42 262.83 283.06 257.73 288.99 252.21 295.14 246.36 301.46 240.09 307.95 233.69 314.56 227.35 321.28 221.05 328.07 215.17 334.89 209.9 341.78 205.25 348.66 201.57 355.49 199.03 362.36 197.47 369.15 197.2 375.83 198.25 382.52 200.19 389.08 203.26 395.47 207.27" stroke-dasharray="7 8" transform="rotate(36.36, 400, 400)" opacity="0.83"></path><path d="M387.18 218.15C393.07 222.35 398.67 226.89 403.96 231.55 409.25 235.87 414.24 239.92 418.92 243.56 428.29 248.46 436.55 251.07 443.88 251.78 451.54 250.14 458.78 248.5 466.02 247.91 474.41 247.95 483.65 250.55 494.16 255.83 506.53 262.9 520.52 272.42 535.84 283.73 552.19 296.18 568.55 309.61 583.57 323.38 596.58 337.52 605.79 351.55 609.86 365.11 610.22 371.92 609.13 378.59 606.59 385.09 603.03 391.6 598.2 397.92 592.25 404.03 585.74 410.15 578.68 415.89 571.33 421.25 564.12 426.6 557.05 431.56 550.35 436.12 539.13 445.18 530.73 452.62 525.39 458.55 523.75 464.64 524.16 469.71 525.57 474.36 528.43 480.32 530.42 487.16 530.76 495.69 530.49 506.95 527.8 520.6 522.71 536.36 516.58 553.5 508.34 570.46 498.46 585.1 487.99 596.12 476.41 601.33 464.16 599.57 457.98 596.64 451.69 592.2 445.33 586.46 438.97 580.13 432.54 573.16 426.09 565.95 419.63 559.29 413.29 553.29 407.07 548.26 400.85 544.62 394.73 542.25 388.71 541.17 376.57 543.45 364.68 549.28 352.96 556.5 340.9 564.51 328.78 569.77 316.59 571.01 304.01 568.95 291.38 562.25 278.95 551.8 266.55 538.87 254.82 523.92 244.27 508.14 234.69 491.96 227 476.06 221.69 460.95 218.02 446.18 216.94 432.22 218.44 419.08 219.6 412.58 221.26 406.23 223.37 400.03 225.51 393.86 227.94 387.81 230.57 381.9 234.19 373.17 240.55 357.09 243.06 349.79 244.89 340.3 246.19 332.11 247.22 325.34 247.43 315.9 252.55 301.56 259.21 294.29 265.04 287.53 272.61 279.56 281.6 270.12 291.37 258.72 302.24 246.48 313.82 234.38 325.83 222.97 338.2 214.12 350.57 209.16 356.81 208.01 363.01 208.03 369.13 209.24 375.26 211.25 381.28 214.26 387.17 218.14" stroke-dasharray="3 10" transform="rotate(40.400000000000006, 400, 400)" opacity="0.43"></path><path d="M380.3 229.02C391.15 237.15 401.1 245.88 410.14 253.81 419.23 259.17 427.58 262.56 435.37 264.14 443.57 263.36 451.7 262.18 460.1 261.52 469.56 260.89 479.92 262.2 491.41 265.72 504.33 270.59 518.44 277.75 533.32 286.75 548.65 296.87 563.51 308.22 576.7 320.21 587.81 332.7 595.32 345.34 598.19 357.72 597.22 370.23 591.31 382.27 580.95 393.55 568.7 404.83 555.18 414.74 542.02 423.28 531.01 431.82 522.2 439.11 515.92 445.35 512.87 451.99 511.73 458.19 511.76 464.51 513.41 472.23 514.7 481.09 514.92 491.6 515.02 504.24 513.23 518.67 509.42 534.31 504.9 550.39 498.42 565.48 490.29 577.78 481.66 586.47 471.75 589.79 460.91 587.01 449.92 579.92 438.27 568.57 426.17 555.09 414.06 543.48 402.08 534.94 390.31 530.6 378.45 531.48 366.63 535.68 354.86 541.56 342.87 548.82 330.78 554.35 318.68 556.91 306.39 557.08 294.19 553.26 282.34 545.9 270.76 536.16 260 524.02 250.53 510.52 242.09 496.19 235.51 481.58 231.19 467.29 228.36 453.05 227.87 439.4 229.71 426.56 232.38 413.84 236.59 401.8 241.88 390.58 246.35 379.35 250.65 369.38 254.43 360.69 256.53 351.98 258.13 344.53 259.42 338.3 259.58 331.89 260.13 326.41 261.41 321.58 262.62 315.91 265.16 310.16 269.14 303.85 273.69 295.84 279.8 286.71 287.27 276.43 295.37 264.76 304.61 252.75 314.64 241.38 325.06 231.06 335.98 223.38 347.05 219.42 358.27 218.65 369.44 222.01 380.29 229.01" stroke-dasharray="2 9" transform="rotate(44.44, 400, 400)" opacity="0.54"></path><path d="M375.58 239.89C385.59 247.64 395.02 256.05 403.86 263.91 412.79 269.64 421.33 273.7 429.63 276.13 438.35 276.28 447.26 275.79 456.6 275.38 466.83 274.53 477.91 275.04 489.91 277.25 502.89 280.34 516.65 285.44 530.7 292.28 544.74 300.08 557.94 309.25 569.28 319.29 578.59 329.83 584.55 340.8 586.37 351.79 584.92 362.92 579.21 373.82 569.64 384.2 558.46 394.58 546.03 403.9 533.71 412.19 523.03 420.55 514.02 428.1 507.05 435.07 502.81 442.57 500.3 450.09 498.97 458.08 499.31 467.36 499.67 477.8 499.42 489.64 499.42 502.95 498.03 517.39 495.03 532.24 491.61 546.77 486.48 559.75 479.78 569.68 472.69 576.21 464.27 577.89 454.76 574.31 445.12 567.24 434.59 556.62 423.37 544.22 412.14 533.42 400.77 525.1 389.39 520.25 377.97 519.9 366.45 522.56 354.88 527.02 343.22 533.24 331.46 538.55 319.75 541.81 308.05 543.56 296.55 542.04 285.56 537.39 275 530.68 265.36 521.47 257.07 510.56 249.81 498.61 244.35 485.89 240.99 473.05 238.93 460.01 238.98 447.26 241.1 435.12 243.88 423.02 248.04 411.56 253.18 400.91 257.58 390.27 261.86 380.87 265.72 372.69 268.07 364.42 269.97 357.23 271.55 351 272 344.43 272.69 338.45 273.89 332.75 274.83 326.14 276.82 319.19 280 311.59 283.51 302.56 288.39 292.6 294.52 281.87 301.11 270.31 308.82 258.87 317.38 248.44 326.26 239.31 335.75 232.82 345.56 229.81 355.5 229.64 365.57 233.14 375.58 239.89" stroke-dasharray="11 0" transform="rotate(48.48, 400, 400)" opacity="0.85"></path><path d="M373.55 250.76C382.8 258.1 391.78 266.14 400.48 273.86 409.28 279.84 418 284.47 426.73 287.68 435.84 288.79 445.31 289.12 455.26 289.23 465.89 288.57 477.25 288.75 489.26 290.15 501.88 291.98 514.88 295.45 527.77 300.47 540.32 306.21 551.78 313.31 561.3 321.43 568.91 329.99 573.48 339.2 574.4 348.72 572.59 358.37 567.13 368.09 558.34 377.63 548.19 387.17 536.83 396.06 525.39 404.33 515.17 412.71 506.16 420.72 498.73 428.58 493.55 436.95 489.86 445.68 487.29 455.05 486.32 465.43 485.61 476.84 484.66 489.26 484.2 502.52 482.78 516.27 480.15 529.76 477.36 542.41 473.14 553.14 467.52 560.79 461.65 565.35 454.48 565.65 446.15 561.47 437.72 554.55 428.29 544.7 417.99 533.35 407.69 523.36 397.07 515.34 386.27 510.13 375.47 508.72 364.47 509.96 353.4 512.99 342.32 517.96 331.18 522.65 320.18 526.05 309.32 528.71 298.78 528.85 288.87 526.38 279.48 522.29 271.07 515.83 264.02 507.53 257.95 498.18 253.56 487.72 251.1 476.74 249.75 465.4 250.27 454.01 252.61 442.92 255.46 431.8 259.52 421.13 264.48 411.09 268.77 401.05 273.01 392.08 276.91 384.11 279.49 376.03 281.68 368.77 283.56 362.17 284.35 355.16 285.27 348.43 286.53 341.72 287.38 334.14 289.05 326.12 291.67 317.49 294.41 307.77 298.31 297.39 303.32 286.64 308.63 275.55 315 264.96 322.24 255.66 329.71 247.78 337.87 242.46 346.52 240.34 355.24 240.7 364.31 244.3 373.55 250.76" stroke-dasharray="9 7" transform="rotate(52.52, 400, 400)" opacity="0.41"></path><path d="M374.44 261.62C382.99 268.54 391.55 276.17 400.1 283.65 408.74 289.77 417.52 294.84 426.49 298.74 435.78 300.76 445.49 301.98 455.65 302.79 466.29 302.63 477.48 302.91 489.06 303.97 500.91 305.08 512.82 307.45 524.31 311.12 535.24 315.21 544.95 320.57 552.73 327 558.79 333.75 562.13 341.31 562.3 349.43 560.24 357.65 555.06 366.24 547.04 375.01 537.88 383.78 527.58 392.32 517.05 400.64 507.4 409.09 498.56 417.54 490.92 426.15 485.06 435.2 480.42 444.77 476.78 454.97 474.6 465.87 472.8 477.54 471.01 489.78 469.86 502.31 468.1 514.8 465.48 526.51 462.9 537.07 459.2 545.55 454.31 551.08 449.3 553.92 443.1 553.09 435.79 548.54 428.39 541.87 419.98 532.81 410.64 522.48 401.29 513.31 391.51 505.64 381.47 500.21 371.47 497.94 361.22 497.92 350.9 499.57 340.66 503.19 330.41 506.96 320.38 510.05 310.59 512.99 301.2 514.12 292.52 513.21 284.4 511.18 277.29 507.04 271.49 501.12 266.57 494.28 263.2 486.14 261.56 477.19 260.83 467.82 261.74 458.07 264.23 448.28 267.1 438.41 271.04 428.69 275.78 419.31 279.94 409.93 284.1 401.31 288.01 393.4 290.77 385.38 293.22 377.87 295.4 370.73 296.56 363.2 297.77 355.71 299.2 348.07 300.13 339.72 301.67 330.92 303.95 321.65 306.18 311.66 309.37 301.32 313.52 290.96 317.82 280.67 323.09 271.16 329.2 263.12 335.46 256.52 342.47 252.33 350.08 251.03 357.73 251.85 365.88 255.48 374.44 261.62" stroke-dasharray="7 7" transform="rotate(56.56, 400, 400)" opacity="0.65"></path><path d="M378.13 272.49C386.05 278.95 394.18 286.12 402.48 293.3 410.86 299.43 419.54 304.81 428.49 309.25 437.67 312.1 447.28 314.19 457.25 315.8 467.5 316.36 478.11 317.06 488.86 318.21 499.63 319.11 510.2 320.91 520.14 323.71 529.41 326.69 537.4 330.77 543.57 335.85 548.23 341.13 550.51 347.3 550.08 354.2 547.85 361.16 543 368.72 535.74 376.79 527.53 384.85 518.28 393.05 508.68 401.34 499.69 409.75 491.2 418.44 483.54 427.46 477.27 436.8 471.93 446.67 467.45 457.07 464.21 467.83 461.41 479.06 458.77 490.44 456.79 501.69 454.49 512.49 451.63 522.18 447.2 533.76 433.76 541.11 424.53 535.51 418 529.19 410.51 520.93 402.11 511.61 393.71 503.25 384.87 496.01 375.74 490.49 366.67 487.54 357.37 486.44 348.04 486.83 338.83 489.08 329.68 491.74 320.81 494.16 312.24 496.88 304.15 498.39 296.79 498.39 287.07 496.57 274.52 483.72 272.38 473.72 272.18 466.34 273.4 458.31 275.97 449.92 278.8 441.43 282.58 432.78 287.08 424.12 291.07 415.47 295.12 407.21 299 399.35 301.9 391.38 304.57 383.63 307.02 376.01 308.55 368.07 310.09 360.01 311.77 351.72 312.9 342.94 314.47 333.79 316.61 324.35 318.58 314.55 321.32 304.68 324.86 295.1 328.43 285.88 332.85 277.63 338.08 270.91 343.37 265.58 349.42 262.45 356.13 261.88 362.87 263.07 370.22 266.7 378.13 272.49" stroke-dasharray="9 5" transform="rotate(60.599999999999994, 400, 400)" opacity="0.18"></path><path d="M384.24 283.36C391.54 289.34 399.19 296.01 407.12 302.81 415.11 308.84 423.46 314.36 432.11 319.19 440.89 322.72 450.04 325.61 459.44 328.01 468.95 329.4 478.64 330.74 488.25 332.28 497.71 333.38 506.79 335.08 515.11 337.51 525.93 341.53 537.95 354.15 537.75 362.63 535.44 368.58 530.94 375.27 524.43 382.67 517.15 390.06 508.9 397.84 500.26 405.92 492.01 414.08 484 422.67 476.54 431.64 470.1 440.78 464.35 450.39 459.27 460.32 455.2 470.34 451.55 480.51 448.13 490.5 445.35 500.09 442.44 508.94 439.2 516.53 434.44 525.07 421.69 528.34 413.35 522.42 407.5 516.53 400.82 509.08 393.35 500.74 385.88 493.18 378.01 486.42 369.91 480.95 361.86 477.51 353.65 475.54 345.46 474.82 337.41 475.77 329.5 477.25 321.94 478.78 311.3 481.56 294.1 482.07 288.33 478.88 284.68 473.72 284.51 457.46 287.82 447.23 290.58 440.12 294.15 432.56 298.39 424.68 302.18 416.81 306.07 408.99 309.87 401.28 312.87 393.49 315.71 385.68 318.38 377.81 320.26 369.73 322.13 361.44 324.08 352.94 325.49 344.15 327.22 335.13 329.38 326.02 331.28 316.84 333.79 307.83 336.96 299.34 340.06 291.39 343.9 284.5 348.47 279.11 353.03 274.99 358.32 272.83 364.3 272.88 370.28 274.38 376.93 277.94 384.24 283.36" stroke-dasharray="7 0" transform="rotate(64.64, 400, 400)" opacity="0.19"></path><path d="M392.07 294.23C398.78 299.71 405.87 305.84 413.27 312.18 420.72 317.98 428.51 323.5 436.57 328.55 444.69 332.58 453.07 336.12 461.57 339.22 470.06 341.44 478.57 343.51 486.84 345.61 494.86 347.2 502.39 349.15 509.11 351.58 517.63 355.3 526.22 366.27 525.33 373.68 523.02 378.87 518.91 384.84 513.12 391.59 506.73 398.34 499.48 405.57 491.8 413.19 484.34 420.85 476.94 428.95 469.85 437.38 463.48 445.86 457.57 454.64 452.16 463.54 447.52 472.34 443.24 481.03 439.21 489.28 435.73 497 432.23 503.84 428.59 509.39 423.37 515.2 410.85 515.25 403.19 509.28 397.88 503.89 391.92 497.26 385.32 489.87 378.73 483.11 371.85 476.89 364.82 471.58 357.84 467.84 350.79 465.21 343.84 463.57 337.02 463.36 330.41 463.69 324.18 464.23 302.08 463.52 296.45 448.64 299.78 440.31 302.41 434.44 305.76 427.94 309.69 420.89 313.25 413.84 316.95 406.59 320.63 399.22 323.65 391.81 326.6 384.21 329.44 376.46 331.61 368.59 333.79 360.5 336.01 352.27 337.74 343.94 339.7 335.52 341.98 327.18 343.96 318.99 346.42 311.14 349.4 303.96 353.99 294.64 366.24 284.14 373.98 284.06 379.34 285.78 385.37 289.22 392.07 294.23" stroke-dasharray="6 2" transform="rotate(68.68, 400, 400)" opacity="0.37"></path><path d="M400.78 305.1C412.96 315.11 426.64 326.57 441.05 337.32 455.51 345.16 470.41 351.76 484.3 357.67 497.08 361.64 507.17 366.75 512.63 373.79 514.88 380.46 511.33 389.81 501.82 402 490.46 414.19 476.89 428.23 463.39 443.17 451.81 457.98 441.32 472.99 432.01 486.22 424.48 497.3 416.79 504.09 408.31 504.58 400.23 501.21 390.44 492.06 378.91 479 367.37 467.88 355.31 458.89 343.75 453.11 332.66 451.84 322.83 451.73 315.42 450.95 309.28 451.06 306.27 448.21 306.99 442.03 308.77 435.48 313.6 425.8 320.99 413.41 327.17 401.01 333.79 387.22 340.16 372.76 344.4 358.21 348.93 343.01 354.1 328.42 358.15 314.87 363.85 303.69 371.5 297 378.87 293.87 388.61 296.57 400.78 305.1" stroke-dasharray="5 7" transform="rotate(72.72, 400, 400)" opacity="0.31"></path><path d="M409.41 315.97C420.28 324.88 432.31 335.3 444.73 345.52 457.06 353.76 469.37 361.22 480.38 368.05 490.34 373.24 497.76 379.04 501.24 386.05 502.34 392.63 498.8 401.23 490.52 412.06 480.85 422.88 469.12 435.01 457.09 447.51 446.25 459.68 435.92 471.37 426.46 480.94 418.3 488.65 410.18 492.52 401.81 491.34 393.81 487.56 384.8 479.38 374.82 468.13 364.83 458.35 354.85 449.79 345.65 443.41 333.07 439.5 318.79 434.29 319.23 427.63 321.18 422.31 325.64 414.25 332.29 403.57 337.98 392.88 344.25 380.7 350.51 367.89 355.12 355.23 360.07 342.29 365.48 330.34 369.92 319.58 375.61 311.21 382.8 306.81 389.69 305.16 398.53 308.21 409.41 315.97" stroke-dasharray="4 9" transform="rotate(76.76, 400, 400)" opacity="0.98"></path><path d="M416.99 326.84C426.48 334.61 436.67 343.82 446.89 353.19 456.96 361.34 466.64 369.14 474.92 376.46 482.32 382.57 487.46 388.97 489.37 396 489.63 402.64 486.27 410.59 479.22 419.98 471.16 429.37 461.28 439.35 450.87 449.12 441.13 458.54 431.47 466.99 422.37 473.28 414.14 478.16 406.01 479.84 397.97 477.64 390.23 473.83 382.03 466.74 373.5 457.27 364.96 448.85 356.9 440.97 349.81 434.44 340.22 428.68 330.54 420.19 331.78 413.71 333.74 408.97 337.75 402.11 343.59 393.09 348.72 384.07 354.51 373.84 360.45 363.22 365.22 352.85 370.36 342.56 375.87 333.47 380.61 325.48 386.29 319.7 393.04 317.22 399.53 316.73 407.51 319.94 416.99 326.84" stroke-dasharray="7 2" transform="rotate(80.80000000000001, 400, 400)" opacity="0.97"></path><path d="M422.71 337.71C430.72 344.28 438.98 352.15 446.96 360.39 454.78 367.97 461.98 375.53 467.82 382.8 473.02 389.3 476.31 395.92 477.09 402.75 476.78 409.29 473.75 416.51 467.92 424.39 461.4 432.26 453.33 440.04 444.66 447.16 436.3 454 427.74 459.62 419.49 463.27 411.74 466 404.09 466.21 396.69 463.57 389.5 460.06 382.23 454.15 375.1 446.4 367.96 439.37 361.59 432.41 356.29 426.15 349.19 419.37 343 408.27 344.61 401.69 346.44 397.18 349.9 391.24 354.9 383.83 359.37 376.42 364.54 368.29 369.99 360.1 374.65 352.17 379.72 344.61 385.09 338.28 389.91 332.81 395.42 329.23 401.64 328.26 407.66 328.61 414.7 331.75 422.71 337.71" stroke-dasharray="9 10" transform="rotate(84.84, 400, 400)" opacity="0.18"></path><path d="M425.93 348.58C438.83 359.34 451.07 373.56 459.12 387.15 465.49 399.15 465.29 411.89 456.61 424.49 446.25 437.08 431.72 447.06 417.51 451.16 404.3 453.29 390.98 447.82 379.43 435.53 367.88 425.05 359.99 414.27 357.18 404.97 354.83 398.12 357.82 389.17 366.2 377.43 373.21 365.68 382.8 353.49 392.99 345.08 401.82 338.87 413.01 339.39 425.93 348.58" stroke-dasharray="5 3" transform="rotate(88.88, 400, 400)" opacity="0.29"></path><path d="M426.29 359.44C435.97 367.64 444.19 378.76 448.9 389.76 452.72 400.16 451.89 410.88 445.31 420.27 437.81 429.66 427.01 435.82 416.08 437.38 405.52 438.11 394.84 433.7 386.03 424.66 377.23 416.62 371.75 407.46 370.18 399.02 368.7 391.89 371.1 383.77 377.5 375 383.11 366.23 391.02 358.46 399.51 354 407.31 350.69 416.59 352.17 426.29 359.44" stroke-dasharray="6 10" transform="rotate(92.92, 400, 400)" opacity="0.24"></path><path d="M423.75 370.31C436.6 381.46 442.27 400.09 434.01 412.48 424.14 424.86 406.15 425.7 394.17 413.79 382.18 403.63 379.93 388.71 388.8 376.98 396.24 365.24 410.9 360.8 423.75 370.31" stroke-dasharray="0 5" transform="rotate(96.96, 400, 400)" opacity="0.20"></path></g></svg>